<svg id="splitsvg" version="1.1" xmlns="http://www.w3.org/2000/svg" xmlns:xlink="http://www.w3.org/1999/xlink" width="1380" height="860"><g id="svgg"><path id="path0" d="M208.800 77.087 C 208.800 77.203,209.605 78.427,210.589 79.806 C 225.086 100.121,225.403 137.015,211.411 175.600 C 210.573 177.911,205.962 187.243,205.332 187.902 C 205.068 188.179,204.725 188.805,204.570 189.294 C 204.415 189.782,203.593 191.103,202.744 192.228 C 201.895 193.352,201.200 194.404,201.200 194.565 C 201.200 194.726,200.975 195.092,200.700 195.380 C 200.425 195.667,199.978 196.239,199.707 196.651 C 194.618 204.390,192.753 207.139,192.140 207.804 C 191.733 208.246,190.788 209.326,190.040 210.204 C 189.292 211.082,187.762 212.874,186.640 214.186 C 183.485 217.877,174.757 226.360,170.795 229.587 C 169.588 230.571,167.672 232.207,166.537 233.224 C 165.402 234.241,163.062 236.134,161.337 237.431 C 158.035 239.912,157.008 240.720,156.247 241.437 C 155.992 241.677,155.349 242.106,154.817 242.391 C 154.285 242.675,153.659 243.062,153.425 243.251 C 151.455 244.838,148.779 246.800,148.583 246.800 C 148.451 246.800,147.231 247.582,145.872 248.537 C 140.271 252.472,136.885 254.710,134.900 255.787 C 133.745 256.414,132.800 257.079,132.800 257.264 C 132.800 257.449,132.558 257.600,132.262 257.600 C 131.966 257.600,130.661 258.278,129.362 259.107 C 128.063 259.936,126.550 260.845,126.000 261.126 C 125.450 261.408,124.343 262.035,123.539 262.519 C 120.522 264.338,116.863 266.339,112.600 268.500 C 103.666 273.029,101.397 274.323,101.269 274.963 C 101.016 276.228,103.307 279.910,109.007 287.400 C 115.930 296.496,122.398 302.117,131.600 307.033 C 145.056 314.220,163.734 314.684,177.860 308.180 C 178.554 307.861,179.314 307.600,179.550 307.600 C 179.786 307.600,181.199 306.984,182.690 306.231 C 184.180 305.478,186.390 304.394,187.600 303.822 C 188.810 303.250,191.870 301.532,194.400 300.004 C 196.930 298.476,199.900 296.744,201.000 296.156 C 202.784 295.202,205.461 293.392,206.000 292.776 C 206.110 292.650,207.190 291.964,208.400 291.251 C 212.744 288.692,213.207 288.375,226.000 279.225 C 227.210 278.359,228.565 277.310,229.010 276.894 C 229.456 276.477,230.356 275.796,231.010 275.380 C 231.665 274.964,233.010 273.978,234.000 273.189 C 234.990 272.399,237.600 270.325,239.800 268.580 C 242.000 266.834,245.150 264.240,246.800 262.814 C 250.268 259.817,250.476 259.643,252.559 258.013 C 256.069 255.267,271.943 239.757,276.317 234.800 C 278.756 232.037,284.937 224.486,286.009 222.960 C 293.231 212.685,296.585 206.198,299.019 197.800 C 301.245 190.118,301.207 175.823,298.942 168.600 C 297.403 163.695,295.316 158.194,294.389 156.600 C 294.005 155.940,292.969 154.024,292.086 152.342 C 291.203 150.660,289.338 147.820,287.940 146.029 C 286.543 144.239,284.989 142.195,284.486 141.487 C 279.960 135.110,262.532 116.757,253.600 108.962 C 244.109 100.679,240.223 97.396,238.614 96.305 C 237.726 95.703,235.920 94.395,234.600 93.400 C 233.280 92.404,231.638 91.187,230.951 90.695 C 230.265 90.203,228.735 89.068,227.551 88.173 C 226.368 87.278,225.117 86.440,224.770 86.312 C 224.424 86.184,222.174 84.742,219.770 83.108 C 213.200 78.642,208.800 76.227,208.800 77.087  M -25 0 L -5 0 L -5 20 L -25 20 Z M 405 0 L 425 0 L 425 20 L 405 20 Z" stroke="none" fill="#f27f27" fill-rule="evenodd" transform="translate(30,0)"></path><path id="path1" d="M0.000 200.000 L 0.000 400.000 200.000 400.000 L 400.000 400.000 400.000 200.000 L 400.000 0.000 200.000 0.000 L 0.000 0.000 0.000 200.000 M192.800 68.007 C 196.793 68.867,198.468 69.581,205.321 73.345 C 206.378 73.925,207.479 74.400,207.767 74.400 C 208.056 74.400,208.721 74.735,209.246 75.145 C 209.771 75.555,210.650 76.025,211.200 76.191 C 211.750 76.356,212.560 76.817,213.000 77.215 C 213.440 77.612,215.150 78.696,216.800 79.624 C 218.450 80.552,221.383 82.411,223.318 83.756 C 225.254 85.100,227.414 86.551,228.118 86.980 C 228.823 87.410,231.597 89.424,234.283 91.457 C 236.968 93.490,239.536 95.352,239.989 95.594 C 240.442 95.837,241.684 96.792,242.749 97.717 C 243.813 98.643,245.645 100.210,246.820 101.200 C 251.609 105.238,256.805 109.919,260.272 113.318 C 262.291 115.298,264.103 117.026,264.297 117.159 C 265.611 118.055,280.322 134.156,282.600 137.192 C 283.480 138.364,285.010 140.273,286.000 141.434 C 288.922 144.859,291.483 148.476,293.202 151.603 C 294.087 153.214,294.976 154.730,295.177 154.973 C 295.737 155.648,298.430 162.350,299.045 164.600 C 302.020 175.484,302.000 175.359,302.000 183.202 C 302.000 187.274,301.813 191.234,301.585 192.003 C 301.356 192.771,300.928 194.660,300.634 196.200 C 300.339 197.740,299.908 199.540,299.674 200.200 C 299.440 200.860,299.019 202.197,298.737 203.172 C 297.652 206.925,291.950 217.244,288.445 221.800 C 287.429 223.120,286.075 224.970,285.437 225.911 C 281.905 231.117,261.903 252.075,255.882 256.879 C 253.758 258.574,248.653 262.888,246.908 264.464 C 245.792 265.471,242.083 268.417,237.184 272.189 C 235.763 273.283,234.420 274.384,234.200 274.636 C 232.337 276.767,204.260 295.953,198.200 299.235 C 197.540 299.592,195.290 300.927,193.200 302.202 C 188.684 304.956,181.621 308.395,178.000 309.605 C 176.570 310.082,175.220 310.616,175.000 310.790 C 174.780 310.965,173.970 311.237,173.200 311.396 C 172.430 311.554,170.810 312.007,169.600 312.401 C 161.988 314.882,146.661 314.760,141.938 312.180 C 141.354 311.861,140.399 311.600,139.816 311.600 C 136.241 311.600,126.393 305.996,117.512 298.907 C 115.628 297.404,110.647 291.854,108.798 289.200 C 108.262 288.430,106.804 286.540,105.558 285.000 C 102.247 280.906,99.931 276.607,100.080 274.829 L 100.200 273.400 108.440 269.200 C 116.546 265.068,120.836 262.750,123.600 261.008 C 124.370 260.522,126.350 259.341,128.000 258.384 C 135.651 253.944,143.175 248.989,155.170 240.491 C 173.401 227.575,190.815 209.430,200.017 193.760 C 200.576 192.808,201.413 191.617,201.876 191.114 C 202.819 190.090,208.702 179.101,209.059 177.696 C 209.185 177.199,209.449 176.694,209.644 176.573 C 211.375 175.503,201.697 164.890,191.505 156.681 C 190.468 155.846,189.390 154.946,189.110 154.681 C 187.363 153.032,178.413 146.205,174.600 143.612 C 173.500 142.865,172.510 142.151,172.400 142.026 C 172.290 141.901,171.705 141.544,171.100 141.232 C 170.495 140.920,170.000 140.515,170.000 140.332 C 170.000 140.150,169.812 140.000,169.582 140.000 C 169.352 140.000,167.830 139.100,166.200 138.000 C 164.570 136.900,163.156 136.000,163.059 136.000 C 162.961 136.000,161.738 135.308,160.341 134.463 C 156.194 131.954,154.298 130.936,143.600 125.481 C 137.990 122.620,132.905 120.023,132.300 119.710 C 130.545 118.802,131.670 115.868,137.786 105.400 C 139.155 103.058,143.618 96.291,143.986 96.000 C 144.125 95.890,144.677 95.170,145.212 94.400 C 147.873 90.574,156.646 81.890,160.524 79.244 C 161.006 78.915,161.490 78.531,161.600 78.391 C 161.992 77.890,167.971 74.000,168.349 74.000 C 168.560 74.000,168.793 73.859,168.867 73.686 C 169.003 73.367,174.025 70.824,176.200 69.975 C 181.289 67.986,188.651 67.114,192.800 68.007 M160.108 340.800 C 160.058 341.350,159.833 342.925,159.608 344.300 C 158.874 348.795,158.467 351.352,158.000 354.400 C 156.003 367.431,155.913 367.789,154.462 368.333 C 146.898 371.171,140.465 369.550,139.302 364.515 C 138.577 361.374,140.197 352.946,141.841 351.302 C 142.151 350.991,142.578 350.415,142.789 350.021 C 143.738 348.247,148.516 347.065,152.730 347.562 L 155.132 347.845 155.382 346.623 C 155.519 345.950,155.785 344.410,155.974 343.200 C 156.514 339.738,156.658 339.541,158.551 339.679 C 160.040 339.788,160.191 339.897,160.108 340.800 M167.931 340.948 C 168.224 343.511,166.900 344.866,164.766 344.189 C 163.860 343.902,163.665 340.895,164.498 340.062 C 165.491 339.069,167.784 339.662,167.931 340.948 M296.950 341.400 C 296.922 342.280,296.763 344.022,296.597 345.271 L 296.294 347.543 299.920 347.543 C 307.151 347.543,309.525 351.674,307.422 360.600 C 305.645 368.146,298.879 371.578,290.971 368.943 C 287.400 367.754,287.440 368.157,289.600 355.200 C 290.220 351.481,290.710 348.439,291.146 345.600 C 291.549 342.973,291.930 341.032,292.228 340.080 C 292.342 339.713,293.069 339.595,294.695 339.680 L 297.000 339.800 296.950 341.400 M106.000 341.800 C 106.396 342.278,106.397 342.643,106.000 343.600 L 105.503 344.800 101.087 344.800 C 93.947 344.800,92.076 346.537,90.747 354.400 C 89.087 364.215,89.986 365.708,97.700 365.942 L 102.400 366.084 102.400 367.379 C 102.400 371.417,89.618 370.182,87.183 365.908 C 86.122 364.046,85.849 357.245,86.717 354.318 C 86.932 353.593,87.340 351.957,87.622 350.681 C 87.905 349.406,88.286 348.270,88.468 348.158 C 88.651 348.045,88.800 347.607,88.800 347.185 C 88.800 346.187,92.987 342.000,93.985 342.000 C 94.407 342.000,94.864 341.820,95.000 341.600 C 95.429 340.906,105.409 341.087,106.000 341.800 M242.183 341.700 C 242.269 341.975,242.465 345.440,242.618 349.400 C 242.868 355.875,243.398 362.115,243.544 360.295 C 243.575 359.907,243.766 359.277,243.970 358.895 C 244.173 358.513,245.102 356.220,246.034 353.800 C 249.143 345.732,250.119 344.400,252.924 344.400 C 255.316 344.400,256.400 347.358,256.400 353.883 C 256.400 358.061,256.710 359.276,257.648 358.774 C 258.061 358.553,258.400 357.964,258.400 357.466 C 258.400 356.968,258.548 356.389,258.728 356.180 C 258.908 355.971,259.481 354.450,260.000 352.800 C 260.519 351.150,261.092 349.629,261.272 349.420 C 261.452 349.211,261.600 348.662,261.600 348.200 C 261.600 347.738,261.743 347.189,261.918 346.980 C 262.093 346.771,262.466 345.880,262.746 345.000 C 264.007 341.043,263.854 341.200,266.461 341.200 C 268.023 341.200,268.892 341.375,269.023 341.716 C 269.195 342.164,265.539 352.769,263.201 358.600 C 263.025 359.040,262.664 360.030,262.400 360.800 C 261.818 362.493,261.229 363.960,260.753 364.895 C 260.559 365.277,260.400 365.836,260.400 366.139 C 260.400 367.441,257.711 369.600,256.089 369.600 C 253.208 369.600,252.672 368.258,251.997 359.355 C 251.765 356.309,251.375 353.633,251.129 353.408 C 250.812 353.119,250.773 353.158,250.993 353.545 C 251.163 353.844,251.125 354.204,250.908 354.345 C 250.690 354.485,249.842 356.310,249.021 358.400 C 248.201 360.490,247.297 362.740,247.012 363.400 C 246.727 364.060,246.271 365.185,245.998 365.900 C 244.392 370.114,239.011 370.938,238.229 367.089 C 237.890 365.419,236.825 341.914,237.070 341.500 C 237.382 340.972,242.010 341.153,242.183 341.700 M220.864 342.800 C 220.789 343.130,220.628 344.345,220.508 345.500 L 220.288 347.600 222.368 347.600 L 224.448 347.600 224.324 349.100 L 224.200 350.600 221.966 350.718 L 219.732 350.836 219.285 353.318 C 217.138 365.238,217.209 366.400,220.089 366.400 C 221.370 366.400,221.808 367.116,221.436 368.601 C 221.040 370.176,216.953 370.083,215.134 368.458 C 213.393 366.902,213.421 365.356,215.392 354.116 C 215.974 350.800,215.974 350.800,213.933 350.800 C 212.521 350.800,212.400 350.712,212.400 349.680 C 212.400 348.173,213.070 347.600,214.833 347.600 C 216.398 347.600,216.782 347.048,216.795 344.789 C 216.804 343.002,217.879 341.940,219.538 342.078 C 220.594 342.166,220.962 342.367,220.864 342.800 M118.300 347.595 C 118.583 347.598,118.800 348.100,118.800 348.751 C 118.800 350.322,118.215 350.677,115.288 350.879 C 112.170 351.095,111.543 351.670,111.125 354.692 C 110.605 358.455,109.427 365.690,108.975 367.904 C 108.700 369.245,107.674 369.831,106.132 369.527 C 105.281 369.359,105.236 367.839,105.955 363.600 C 106.197 362.170,106.579 359.830,106.803 358.400 C 108.250 349.165,108.229 349.233,109.955 348.497 C 111.520 347.830,115.708 347.202,117.000 347.441 C 117.440 347.523,118.025 347.592,118.300 347.595 M134.599 348.367 C 136.760 349.586,137.600 351.343,137.600 354.640 C 137.600 359.586,136.507 360.357,129.388 360.435 C 121.988 360.516,120.018 361.909,123.035 364.926 C 124.240 366.131,124.461 366.167,130.600 366.186 L 135.000 366.200 135.000 367.400 C 135.000 368.954,133.049 369.522,127.549 369.568 C 120.772 369.624,118.400 367.610,118.400 361.801 C 118.400 357.025,119.651 352.771,121.772 350.336 C 124.304 347.431,131.093 346.389,134.599 348.367 M185.718 348.266 C 188.587 349.736,188.790 351.441,187.204 360.800 C 186.999 362.010,186.620 364.260,186.363 365.800 C 185.811 369.099,185.491 369.600,183.938 369.600 C 182.198 369.600,182.157 368.960,183.380 360.954 C 184.592 353.027,184.549 351.979,182.991 351.269 C 181.251 350.476,173.662 350.996,174.516 351.849 C 174.621 351.954,174.530 352.706,174.315 353.520 C 174.099 354.334,173.775 355.990,173.596 357.200 C 173.416 358.410,173.072 360.570,172.831 362.000 C 172.590 363.430,172.244 365.561,172.063 366.735 C 171.723 368.944,171.206 369.583,169.749 369.594 C 168.284 369.604,167.998 368.817,168.436 365.982 C 168.656 364.562,168.999 362.320,169.200 361.000 C 171.117 348.390,170.824 349.195,173.800 348.340 C 177.834 347.181,183.530 347.146,185.718 348.266 M207.260 348.501 C 210.056 350.035,210.906 353.295,209.728 357.958 C 209.316 359.584,207.129 360.351,202.800 360.385 C 201.370 360.396,199.017 360.517,197.572 360.654 L 194.944 360.902 194.858 362.561 C 194.694 365.741,197.015 366.656,203.721 366.055 C 207.284 365.736,207.200 365.703,207.200 367.424 C 207.200 369.120,206.794 369.254,201.000 369.484 C 192.964 369.802,190.989 368.235,191.026 361.570 C 191.091 350.226,198.920 343.924,207.260 348.501 M283.799 348.369 C 286.073 349.648,286.800 351.299,286.800 355.183 C 286.800 360.455,287.402 360.120,276.300 361.031 L 272.800 361.318 272.800 362.488 C 272.800 364.721,273.568 365.010,279.275 364.916 L 284.400 364.831 284.400 366.601 C 284.400 368.978,283.743 369.276,277.977 369.513 C 272.656 369.732,271.048 369.366,269.247 367.523 C 265.177 363.361,268.015 350.586,273.511 348.323 C 276.376 347.144,281.663 347.168,283.799 348.369 M166.651 348.190 C 166.776 348.514,166.494 351.169,166.024 354.090 C 165.555 357.010,164.974 360.750,164.734 362.400 C 163.810 368.755,163.163 369.979,161.013 369.439 C 159.789 369.132,159.786 369.023,160.823 362.700 C 161.518 358.462,161.928 355.822,162.377 352.695 C 163.036 348.110,163.299 347.600,165.003 347.600 C 165.887 347.600,166.511 347.823,166.651 348.190 M125.590 351.700 C 124.080 352.723,123.002 354.446,122.736 356.257 L 122.554 357.495 125.777 357.544 C 127.550 357.571,130.080 357.369,131.400 357.096 L 133.800 356.600 133.922 354.704 C 134.160 350.996,129.244 349.224,125.590 351.700 M146.526 351.580 C 144.284 352.947,143.246 355.914,143.218 361.030 C 143.194 365.448,143.929 366.207,148.208 366.184 C 151.790 366.164,152.590 365.607,152.950 362.883 C 153.087 361.847,153.373 359.920,153.585 358.600 C 154.838 350.813,154.832 350.799,150.651 350.801 C 148.534 350.803,147.472 351.003,146.526 351.580 M198.019 351.700 C 196.682 352.626,196.011 353.654,195.297 355.877 C 194.757 357.559,194.830 357.600,198.400 357.600 C 205.244 357.600,207.406 356.447,206.381 353.344 C 205.494 350.655,200.846 349.742,198.019 351.700 M275.900 352.263 C 275.075 352.606,274.400 353.121,274.400 353.409 C 274.400 353.698,274.249 353.993,274.063 354.067 C 273.878 354.140,273.613 354.785,273.473 355.500 L 273.220 356.800 277.410 356.800 L 281.600 356.800 281.600 354.823 C 281.600 351.751,279.456 350.788,275.900 352.263 M296.934 351.887 C 295.444 352.074,295.273 352.425,294.743 356.400 C 293.465 365.985,293.295 365.317,296.959 365.088 C 300.089 364.892,301.220 363.697,302.144 359.607 C 303.426 353.931,302.163 351.098,298.603 351.664 C 298.381 351.699,297.630 351.799,296.934 351.887  M -25 0 L -5 0 L -5 20 L -25 20 Z M 405 0 L 425 0 L 425 20 L 405 20 Z" stroke="none" fill="#04448b" fill-rule="evenodd" transform="translate(490,0)"></path><path id="path2" d="M184.000 68.450 C 169.072 71.473,153.105 83.279,142.388 99.217 C 140.207 102.462,139.214 104.056,136.668 108.400 C 134.868 111.472,131.694 118.179,131.849 118.584 C 131.940 118.820,136.826 121.435,142.707 124.395 C 148.588 127.355,154.543 130.456,155.941 131.288 C 157.338 132.120,158.555 132.800,158.645 132.800 C 158.735 132.800,160.708 133.974,163.030 135.409 C 179.623 145.666,191.769 155.318,205.754 169.361 L 211.307 174.938 212.607 171.569 C 218.334 156.721,221.200 140.448,221.196 122.800 C 221.190 99.220,213.780 78.708,203.147 72.834 C 198.948 70.514,197.337 69.715,196.400 69.488 C 189.845 67.902,187.625 67.716,184.000 68.450 M156.846 342.300 C 156.581 343.565,156.178 345.440,155.951 346.466 L 155.536 348.332 151.868 348.118 C 144.794 347.706,143.069 348.875,140.405 355.881 C 139.559 358.108,139.662 365.196,140.559 366.520 C 142.827 369.866,154.688 369.965,155.392 366.643 C 156.033 363.622,156.878 358.493,158.003 350.800 C 158.244 349.150,158.605 346.900,158.804 345.800 C 159.824 340.169,159.815 340.000,158.509 340.000 C 157.393 340.000,157.301 340.128,156.846 342.300 M164.814 340.774 C 163.806 342.658,164.648 344.326,166.300 343.717 C 168.125 343.043,168.219 340.000,166.414 340.000 C 165.651 340.000,165.081 340.276,164.814 340.774 M292.653 340.315 C 292.546 340.488,292.175 342.513,291.829 344.815 C 291.483 347.117,291.016 349.990,290.793 351.200 C 290.569 352.410,290.218 354.570,290.014 356.000 C 289.809 357.430,289.451 359.770,289.218 361.200 C 288.108 368.023,287.945 367.592,292.029 368.639 C 300.134 370.717,305.322 367.578,307.005 359.578 C 308.768 351.194,306.941 348.230,299.964 348.160 C 297.777 348.138,295.915 348.048,295.828 347.960 C 295.650 347.781,296.236 342.804,296.636 341.100 C 296.891 340.011,296.873 340.000,294.870 340.000 C 293.758 340.000,292.760 340.142,292.653 340.315 M94.886 342.103 C 91.709 343.121,89.413 346.256,88.079 351.400 C 87.850 352.280,87.469 353.741,87.232 354.646 C 85.734 360.360,87.016 366.259,90.147 368.053 C 91.915 369.066,100.308 369.470,101.163 368.583 C 102.461 367.239,101.844 366.601,99.200 366.552 C 92.544 366.429,92.959 366.519,91.159 364.807 L 89.484 363.214 89.718 359.107 C 90.376 347.540,92.867 344.224,100.900 344.224 C 105.129 344.224,105.234 344.202,105.469 343.269 C 105.619 342.669,105.503 342.184,105.154 341.963 C 104.390 341.479,96.498 341.586,94.886 342.103 M237.773 347.700 C 237.932 351.055,238.185 356.770,238.337 360.400 C 238.679 368.594,239.203 369.702,242.404 368.999 C 243.403 368.780,245.200 367.012,245.200 366.248 C 245.200 366.123,245.740 364.841,246.400 363.400 C 247.060 361.959,247.600 360.602,247.600 360.385 C 247.600 360.167,247.759 359.677,247.953 359.295 C 248.148 358.913,248.489 358.150,248.713 357.600 C 248.936 357.050,249.393 355.970,249.728 355.200 C 250.064 354.430,250.462 353.305,250.613 352.700 C 251.164 350.489,251.921 351.463,252.170 354.700 C 253.170 367.743,253.579 369.200,256.235 369.200 C 257.447 369.200,260.000 366.794,260.000 365.652 C 260.000 365.271,260.143 364.789,260.318 364.580 C 260.493 364.371,260.865 363.480,261.145 362.600 C 261.424 361.720,261.821 360.595,262.026 360.100 C 262.232 359.605,262.568 358.795,262.774 358.300 C 262.979 357.805,263.376 356.680,263.655 355.800 C 263.935 354.920,264.307 354.029,264.482 353.820 C 264.657 353.611,264.800 353.062,264.800 352.600 C 264.800 352.138,264.962 351.589,265.161 351.380 C 265.359 351.171,265.799 350.190,266.139 349.200 C 267.459 345.348,268.279 343.188,268.507 342.960 C 268.638 342.829,268.648 342.469,268.530 342.161 C 268.256 341.448,265.059 341.400,264.494 342.100 C 263.961 342.761,258.373 358.868,257.823 361.328 C 257.226 363.999,256.592 362.037,256.091 355.969 C 255.239 345.651,254.973 344.800,252.606 344.800 C 250.652 344.800,249.423 346.641,246.599 353.800 C 242.479 364.244,242.580 364.188,242.264 356.161 C 242.119 352.482,242.000 347.810,242.000 345.779 C 242.000 341.656,241.961 341.600,239.109 341.600 L 237.484 341.600 237.773 347.700 M217.989 343.013 C 217.709 343.351,217.394 344.524,217.288 345.622 C 217.072 347.873,216.853 348.102,214.836 348.186 C 212.450 348.286,212.440 350.400,214.825 350.400 L 216.504 350.400 216.268 352.100 C 216.139 353.035,215.761 355.240,215.428 357.000 C 214.191 363.540,214.165 366.864,215.343 367.957 C 216.631 369.153,219.962 369.609,220.722 368.693 C 221.521 367.732,220.873 366.800,219.406 366.800 C 216.828 366.800,216.652 363.220,218.743 353.269 C 219.342 350.418,219.360 350.400,221.597 350.400 C 223.233 350.400,223.589 350.263,223.816 349.550 C 224.156 348.478,223.409 347.978,221.779 348.187 C 219.743 348.448,219.478 348.038,219.969 345.384 C 220.206 344.102,220.400 342.906,220.400 342.727 C 220.400 342.153,218.517 342.377,217.989 343.013 M127.400 348.094 C 123.690 348.701,121.063 351.046,120.110 354.600 C 116.990 366.237,119.372 369.822,129.684 369.015 C 134.090 368.670,134.400 368.563,134.400 367.386 C 134.400 366.460,134.382 366.457,129.472 366.528 C 123.054 366.622,122.415 366.322,121.579 362.826 C 120.964 360.252,121.415 360.002,126.714 359.981 C 129.291 359.971,132.568 359.745,133.995 359.479 L 136.590 358.996 136.916 356.798 C 137.515 352.758,136.295 349.328,134.000 348.600 C 132.156 348.015,129.246 347.791,127.400 348.094 M178.200 348.045 C 172.329 348.747,171.588 349.191,171.120 352.285 C 170.927 353.558,170.588 355.770,170.367 357.200 C 168.520 369.126,168.537 368.800,169.759 368.800 C 171.171 368.800,171.329 368.305,172.593 359.951 C 174.010 350.588,173.812 350.984,177.330 350.463 C 182.738 349.660,185.661 351.176,185.055 354.467 C 184.501 357.478,183.944 360.738,183.596 363.000 C 183.393 364.320,183.105 366.178,182.957 367.130 L 182.687 368.859 184.043 368.730 L 185.400 368.600 186.065 364.400 C 186.431 362.090,186.958 358.760,187.238 357.000 C 188.210 350.869,187.394 348.747,183.851 348.198 C 182.943 348.057,181.930 347.890,181.600 347.826 C 181.270 347.763,179.740 347.861,178.200 348.045 M112.400 348.391 C 108.754 349.169,108.800 349.087,107.625 356.902 C 106.612 363.634,106.294 365.477,105.959 366.560 C 105.355 368.512,105.489 368.800,107.000 368.800 C 107.849 368.800,108.403 368.603,108.408 368.300 C 108.412 368.025,108.689 366.360,109.023 364.600 C 109.357 362.840,109.795 360.230,109.997 358.800 C 111.214 350.170,111.004 350.438,116.715 350.233 C 117.635 350.200,118.383 349.428,118.394 348.500 C 118.401 347.941,114.814 347.876,112.400 348.391 M164.138 348.298 C 163.666 348.607,163.067 351.671,161.613 361.200 C 161.160 364.170,160.688 367.095,160.563 367.700 C 160.351 368.731,160.423 368.800,161.716 368.800 C 163.030 368.800,163.107 368.720,163.361 367.100 C 164.007 362.970,164.462 360.030,164.799 357.800 C 164.999 356.480,165.349 354.320,165.577 353.000 C 166.398 348.249,166.033 347.057,164.138 348.298 M197.855 348.563 C 193.708 350.103,191.600 354.546,191.600 361.746 L 191.600 365.600 193.171 367.171 C 195.074 369.074,196.791 369.429,202.084 369.015 C 206.476 368.671,206.800 368.561,206.800 367.412 C 206.800 366.519,206.743 366.509,201.635 366.554 C 195.579 366.608,194.653 366.160,194.170 362.942 C 193.762 360.219,194.140 360.003,199.349 359.981 C 208.863 359.941,209.950 359.238,209.463 353.439 C 209.074 348.804,203.503 346.464,197.855 348.563 M275.200 348.267 C 271.493 349.530,270.413 350.769,268.841 355.566 C 267.752 358.890,267.709 364.404,268.759 366.195 C 270.147 368.563,271.575 369.008,277.523 368.930 C 283.420 368.853,284.000 368.642,284.000 366.579 L 284.000 365.256 279.624 365.486 C 273.710 365.798,272.000 364.978,272.000 361.828 C 272.000 360.790,272.369 360.718,281.118 360.043 C 286.214 359.649,286.200 359.663,286.200 355.080 C 286.200 350.775,285.663 349.632,283.168 348.634 C 281.654 348.028,276.587 347.795,275.200 348.267 M131.640 350.453 C 133.640 351.120,134.381 352.250,134.391 354.651 C 134.404 357.553,134.148 357.675,127.564 357.912 L 121.942 358.114 122.234 356.557 C 123.214 351.325,126.961 348.893,131.640 350.453 M152.969 350.462 L 155.272 350.925 155.028 352.762 C 154.893 353.773,154.611 355.680,154.401 357.000 C 154.190 358.320,153.797 360.804,153.526 362.520 C 152.913 366.407,152.760 366.528,148.390 366.568 C 143.224 366.615,142.576 365.927,142.659 360.486 C 142.784 352.314,146.106 349.084,152.969 350.462 M204.083 350.416 C 206.784 351.166,208.415 355.955,206.395 357.203 C 204.936 358.105,194.650 358.382,194.483 357.524 C 193.637 353.201,199.222 349.066,204.083 350.416 M281.487 352.116 C 282.202 352.830,282.391 356.169,281.753 356.807 C 281.110 357.450,272.852 357.912,272.624 357.317 C 272.113 355.988,274.163 352.271,275.800 351.556 C 277.042 351.014,280.750 351.379,281.487 352.116 M302.203 352.403 C 303.307 353.440,303.569 356.311,302.818 359.154 C 302.608 359.949,302.326 361.130,302.191 361.779 C 301.696 364.152,299.511 365.600,296.420 365.600 C 292.811 365.600,292.683 365.409,293.448 361.181 C 293.785 359.321,294.209 356.720,294.391 355.400 C 294.949 351.352,295.149 351.181,299.103 351.367 C 300.667 351.441,301.462 351.706,302.203 352.403  M -25 0 L -5 0 L -5 20 L -25 20 Z M 405 0 L 425 0 L 425 20 L 405 20 Z" stroke="none" fill="#f4f8f9" fill-rule="evenodd" transform="translate(950,0)"></path><path id="path3" d="M182.600 68.220 C 179.483 68.902,177.682 69.395,176.200 69.975 C 174.025 70.824,169.003 73.367,168.867 73.686 C 168.793 73.859,168.560 74.000,168.349 74.000 C 167.971 74.000,161.992 77.890,161.600 78.391 C 161.490 78.531,161.006 78.915,160.524 79.244 C 156.646 81.890,147.873 90.574,145.212 94.400 C 144.677 95.170,144.125 95.890,143.986 96.000 C 142.639 97.065,135.519 108.977,132.785 114.740 C 130.902 118.709,130.876 118.974,132.300 119.710 C 132.905 120.023,137.990 122.620,143.600 125.481 C 154.298 130.936,156.194 131.954,160.341 134.463 C 161.738 135.308,162.961 136.000,163.059 136.000 C 163.156 136.000,164.570 136.900,166.200 138.000 C 167.830 139.100,169.352 140.000,169.582 140.000 C 169.812 140.000,170.000 140.150,170.000 140.332 C 170.000 140.515,170.495 140.920,171.100 141.232 C 171.705 141.544,172.290 141.901,172.400 142.026 C 172.510 142.151,173.500 142.865,174.600 143.612 C 178.413 146.205,187.363 153.032,189.110 154.681 C 189.390 154.946,190.468 155.846,191.505 156.681 C 193.982 158.676,198.535 162.941,205.288 169.589 C 208.306 172.560,210.982 175.061,211.234 175.145 C 211.785 175.328,201.409 164.898,197.264 161.101 C 189.656 154.133,180.310 146.768,172.068 141.245 C 167.270 138.031,158.956 132.800,158.645 132.800 C 158.555 132.800,157.338 132.120,155.941 131.288 C 154.543 130.456,148.588 127.355,142.707 124.395 C 136.826 121.435,131.940 118.820,131.849 118.584 C 131.694 118.179,134.868 111.472,136.668 108.400 C 139.214 104.056,140.207 102.462,142.388 99.217 C 152.186 84.646,167.046 72.999,180.600 69.267 C 186.740 67.576,188.607 67.602,196.400 69.488 C 197.337 69.715,198.948 70.514,203.147 72.834 C 205.321 74.034,208.951 77.876,211.203 81.358 C 212.143 82.811,212.983 84.000,213.070 84.000 C 213.356 84.000,212.309 82.242,210.540 79.749 C 208.244 76.515,208.565 76.164,212.000 78.158 C 213.155 78.829,213.304 78.851,212.851 78.285 C 212.549 77.908,212.152 77.600,211.969 77.600 C 211.642 77.600,209.060 75.997,208.124 75.212 C 207.862 74.993,206.962 74.429,206.124 73.960 C 205.286 73.490,204.150 72.798,203.600 72.421 C 197.670 68.360,189.466 66.719,182.600 68.220 M218.400 82.099 C 218.400 82.330,222.245 84.800,222.605 84.800 C 222.766 84.800,222.674 84.530,222.400 84.200 C 222.126 83.870,221.654 83.600,221.351 83.600 C 221.048 83.600,220.800 83.441,220.800 83.247 C 220.800 83.052,220.485 82.782,220.100 82.646 C 219.715 82.511,219.175 82.295,218.900 82.166 C 218.625 82.038,218.400 82.008,218.400 82.099 M223.776 85.813 C 224.204 86.136,224.733 86.400,224.953 86.400 C 225.173 86.400,225.004 86.136,224.576 85.813 C 224.149 85.490,223.620 85.225,223.400 85.225 C 223.180 85.225,223.349 85.490,223.776 85.813 M229.902 89.918 C 230.398 90.293,231.815 91.365,233.050 92.300 C 235.278 93.986,235.600 94.177,235.600 93.810 C 235.600 93.498,229.761 89.198,229.364 89.218 C 229.164 89.228,229.406 89.543,229.902 89.918 M236.364 94.535 C 237.097 95.446,239.195 96.939,239.422 96.711 C 239.519 96.614,238.744 95.927,237.699 95.184 C 236.655 94.441,236.054 94.149,236.364 94.535 M241.600 98.478 C 241.600 98.698,247.960 104.110,248.800 104.604 C 249.634 105.095,247.302 102.836,245.600 101.503 C 244.830 100.901,243.615 99.933,242.900 99.353 C 242.185 98.772,241.600 98.379,241.600 98.478 M250.600 106.400 C 251.232 107.060,251.941 107.597,252.175 107.594 C 252.409 107.590,251.991 107.050,251.246 106.394 C 249.498 104.853,249.121 104.857,250.600 106.400 M253.570 108.912 C 254.103 109.510,254.701 110.000,254.898 110.000 C 255.286 110.000,254.672 109.350,253.398 108.412 C 252.813 107.981,252.858 108.114,253.570 108.912 M256.778 111.736 C 258.217 113.264,258.400 113.395,258.400 112.900 C 258.400 112.735,257.725 112.076,256.900 111.436 L 255.400 110.272 256.778 111.736 M221.369 123.000 C 221.370 127.620,221.428 129.455,221.499 127.078 C 221.570 124.701,221.569 120.921,221.498 118.678 C 221.427 116.435,221.369 118.380,221.369 123.000 M265.600 120.600 C 266.117 121.150,266.687 121.600,266.867 121.600 C 267.047 121.600,266.803 121.150,266.325 120.600 C 265.847 120.050,265.277 119.600,265.058 119.600 C 264.839 119.600,265.083 120.050,265.600 120.600 M268.600 123.600 C 270.214 125.253,270.912 125.722,269.949 124.507 C 268.972 123.275,267.644 122.000,267.337 122.000 C 267.172 122.000,267.741 122.720,268.600 123.600 M276.800 132.312 C 276.800 132.504,277.250 133.083,277.800 133.600 C 278.350 134.117,278.800 134.410,278.800 134.252 C 278.800 134.093,278.350 133.514,277.800 132.964 C 277.250 132.414,276.800 132.120,276.800 132.312 M220.909 134.400 C 220.909 135.390,220.987 135.795,221.082 135.300 C 221.178 134.805,221.178 133.995,221.082 133.500 C 220.987 133.005,220.909 133.410,220.909 134.400 M282.400 138.606 C 282.400 138.958,283.869 140.885,285.540 142.725 L 286.881 144.200 285.960 142.800 C 285.453 142.030,284.937 141.310,284.813 141.200 C 284.689 141.090,284.095 140.401,283.494 139.669 C 282.892 138.937,282.400 138.459,282.400 138.606 M287.591 145.588 C 288.827 147.323,289.338 147.480,288.361 145.824 C 287.899 145.041,287.347 144.400,287.133 144.400 C 286.920 144.400,287.126 144.935,287.591 145.588 M292.285 152.679 C 292.809 154.047,294.390 156.599,294.395 156.084 C 294.401 155.408,292.926 152.525,292.410 152.206 C 292.165 152.055,292.117 152.239,292.285 152.679 M296.624 161.554 C 296.890 162.923,298.375 166.514,298.391 165.828 C 298.404 165.297,297.577 162.809,296.920 161.400 L 296.361 160.200 296.624 161.554 M298.406 167.076 C 298.409 167.474,298.587 168.070,298.800 168.400 C 299.103 168.869,299.189 168.766,299.194 167.924 C 299.197 167.332,299.020 166.736,298.800 166.600 C 298.580 166.464,298.403 166.678,298.406 167.076 M300.036 173.800 C 300.049 174.460,300.203 175.810,300.380 176.800 L 300.700 178.600 300.744 176.200 C 300.768 174.880,300.613 173.530,300.400 173.200 C 300.104 172.742,300.018 172.884,300.036 173.800 M204.032 189.716 C 203.840 190.220,203.395 190.873,203.042 191.165 C 202.689 191.458,202.401 191.901,202.402 192.149 C 202.405 192.744,204.290 190.402,204.535 189.500 C 204.811 188.482,204.440 188.642,204.032 189.716 M300.305 190.400 C 299.841 191.978,299.921 194.239,300.424 193.736 C 300.658 193.502,300.793 192.431,300.724 191.356 C 300.624 189.772,300.544 189.590,300.305 190.400 M298.629 198.629 C 298.481 199.215,298.451 199.784,298.561 199.894 C 298.671 200.004,298.881 199.615,299.029 199.029 C 299.176 198.442,299.206 197.873,299.096 197.763 C 298.986 197.653,298.776 198.042,298.629 198.629 M195.851 201.995 C 195.270 202.872,194.077 204.537,193.199 205.695 C 191.522 207.907,190.944 209.278,192.509 207.331 C 193.373 206.256,196.341 201.966,196.958 200.900 C 197.640 199.721,196.816 200.536,195.851 201.995 M296.885 203.960 C 296.243 205.761,296.273 205.959,297.028 204.882 C 297.373 204.389,297.591 203.673,297.513 203.293 C 297.415 202.820,297.215 203.032,296.885 203.960 M293.953 210.500 C 293.479 211.435,292.602 212.920,292.004 213.800 C 290.517 215.991,289.817 217.360,290.354 217.028 C 290.829 216.735,293.907 211.662,294.679 209.900 C 295.433 208.180,294.912 208.611,293.953 210.500 M183.643 216.841 C 182.677 217.918,182.076 218.800,182.306 218.800 C 182.537 218.800,183.479 217.900,184.400 216.800 C 186.550 214.232,185.953 214.264,183.643 216.841 M287.175 221.300 C 285.743 223.117,285.323 224.051,286.591 222.600 C 287.592 221.454,288.556 220.000,288.314 220.000 C 288.251 220.000,287.739 220.585,287.175 221.300 M283.827 225.800 C 283.240 226.570,282.884 227.200,283.036 227.200 C 283.335 227.200,284.171 226.217,284.821 225.100 C 285.499 223.934,284.961 224.313,283.827 225.800 M280.034 230.300 C 279.138 231.345,278.404 232.363,278.403 232.562 C 278.400 232.950,279.932 231.302,281.250 229.500 C 282.527 227.753,281.815 228.222,280.034 230.300 M164.751 234.434 L 163.000 236.068 164.900 234.586 C 166.636 233.232,167.059 232.800,166.651 232.800 C 166.570 232.800,165.715 233.535,164.751 234.434 M161.185 237.232 L 159.800 238.463 161.088 237.613 C 162.230 236.859,163.093 236.000,162.708 236.000 C 162.632 236.000,161.947 236.554,161.185 237.232 M269.400 242.000 C 266.988 244.420,265.117 246.400,265.244 246.400 C 265.480 246.400,268.623 243.346,272.185 239.656 C 273.277 238.525,274.084 237.600,273.978 237.600 C 273.873 237.600,271.812 239.580,269.400 242.000 M149.200 246.000 C 148.650 246.430,148.397 246.786,148.638 246.791 C 148.879 246.796,149.402 246.440,149.800 246.000 C 150.712 244.992,150.488 244.992,149.200 246.000 M263.371 248.103 L 262.200 249.397 263.400 248.399 C 264.060 247.849,264.675 247.355,264.767 247.300 C 264.858 247.245,264.845 247.112,264.738 247.004 C 264.630 246.896,264.015 247.391,263.371 248.103 M260.200 251.012 C 259.540 251.553,259.194 251.997,259.430 251.998 C 259.667 251.999,260.283 251.550,260.800 251.000 C 261.985 249.738,261.748 249.743,260.200 251.012 M139.400 252.588 C 137.830 253.875,138.260 253.883,140.000 252.600 C 140.745 252.050,141.185 251.601,140.978 251.602 C 140.770 251.603,140.060 252.047,139.400 252.588 M256.975 254.100 L 255.800 255.400 257.100 254.225 C 257.815 253.579,258.400 252.994,258.400 252.925 C 258.400 252.616,258.070 252.888,256.975 254.100 M136.000 254.833 L 135.000 255.648 136.300 255.014 C 137.015 254.665,137.600 254.294,137.600 254.190 C 137.600 253.792,136.963 254.048,136.000 254.833 M250.475 259.616 C 249.994 260.064,249.600 260.516,249.600 260.619 C 249.600 260.980,251.186 259.812,251.380 259.309 C 251.646 258.614,251.495 258.665,250.475 259.616 M127.500 259.829 C 126.895 260.157,126.400 260.510,126.400 260.613 C 126.400 260.999,127.032 260.757,128.000 260.000 C 129.189 259.070,129.011 259.009,127.500 259.829 M120.700 263.829 C 119.205 264.640,119.296 264.978,120.800 264.200 C 121.460 263.859,122.000 263.494,122.000 263.390 C 122.000 263.132,121.957 263.147,120.700 263.829 M117.600 265.633 L 116.600 266.448 117.900 265.814 C 118.615 265.465,119.200 265.094,119.200 264.990 C 119.200 264.592,118.563 264.848,117.600 265.633 M102.100 273.321 C 100.261 274.091,99.257 275.200,100.400 275.200 C 100.620 275.200,100.800 275.459,100.800 275.776 C 100.800 276.093,100.977 276.462,101.194 276.596 C 101.437 276.747,101.497 276.385,101.350 275.650 C 101.134 274.570,101.263 274.384,102.756 273.622 C 105.478 272.234,105.106 272.063,102.100 273.321 M230.600 275.600 C 229.940 276.037,229.580 276.392,229.800 276.388 C 230.201 276.382,232.376 274.823,232.000 274.812 C 231.890 274.808,231.260 275.163,230.600 275.600 M104.000 281.069 C 104.001 281.251,104.466 281.940,105.035 282.600 C 105.604 283.260,106.363 284.295,106.721 284.900 C 107.079 285.505,107.523 286.000,107.707 286.000 C 107.890 286.000,107.542 285.325,106.933 284.500 C 105.056 281.959,104.000 280.724,104.000 281.069 M221.681 282.172 C 220.029 283.340,219.768 283.600,220.248 283.600 C 220.458 283.600,221.253 283.067,222.015 282.416 C 223.672 281.000,223.508 280.880,221.681 282.172 M111.564 291.133 C 111.780 291.536,112.274 292.121,112.663 292.433 C 113.164 292.835,113.104 292.622,112.457 291.700 C 111.469 290.291,110.931 289.949,111.564 291.133 M207.906 291.524 C 206.864 292.116,206.009 292.745,206.006 292.923 C 206.000 293.273,207.672 292.361,209.226 291.166 C 210.563 290.138,210.147 290.251,207.906 291.524 M115.570 295.745 C 116.103 296.325,116.620 296.800,116.719 296.800 C 117.113 296.800,115.693 295.032,115.166 294.867 C 114.855 294.770,115.036 295.165,115.570 295.745 M199.900 296.629 C 199.295 296.957,198.800 297.310,198.800 297.413 C 198.800 297.799,199.432 297.557,200.400 296.800 C 201.589 295.870,201.411 295.809,199.900 296.629 M118.089 298.100 C 119.796 299.760,120.615 300.181,119.222 298.683 C 118.463 297.867,117.690 297.200,117.503 297.200 C 117.317 297.200,117.580 297.605,118.089 298.100 M195.679 299.254 C 194.512 299.934,193.647 300.580,193.756 300.689 C 193.865 300.798,194.487 300.508,195.139 300.044 C 195.790 299.580,196.499 299.200,196.713 299.200 C 196.927 299.200,197.326 298.930,197.600 298.600 C 198.282 297.778,198.112 297.836,195.679 299.254 M191.900 301.429 C 190.405 302.240,190.496 302.578,192.000 301.800 C 192.660 301.459,193.200 301.094,193.200 300.990 C 193.200 300.732,193.157 300.747,191.900 301.429 M124.530 303.086 C 124.778 303.488,129.599 306.390,130.600 306.740 C 131.233 306.962,128.395 305.043,126.226 303.784 C 125.141 303.153,124.377 302.839,124.530 303.086 M183.856 305.590 C 182.566 306.231,181.396 306.874,181.256 307.020 C 180.910 307.377,183.425 306.321,185.400 305.279 C 187.827 303.999,186.532 304.260,183.856 305.590 M178.200 308.000 C 177.429 308.331,177.431 308.345,178.276 308.372 C 178.758 308.387,179.264 308.220,179.400 308.000 C 179.692 307.527,179.301 307.527,178.200 308.000 M174.800 309.400 C 173.567 309.875,173.519 309.941,174.400 309.957 C 174.950 309.967,175.749 309.710,176.176 309.387 C 177.117 308.676,176.670 308.680,174.800 309.400 M141.200 311.200 C 141.530 311.413,142.250 311.573,142.800 311.554 L 143.800 311.520 142.800 311.200 C 141.258 310.706,140.436 310.706,141.200 311.200 M169.200 311.200 C 168.376 311.464,168.341 311.526,169.000 311.554 C 169.440 311.573,170.070 311.413,170.400 311.200 C 171.101 310.747,170.614 310.747,169.200 311.200 M148.531 312.889 C 149.114 313.260,162.346 313.245,163.285 312.872 C 163.662 312.722,160.390 312.598,156.016 312.595 C 151.641 312.593,148.272 312.725,148.531 312.889 M156.609 340.279 C 156.448 340.676,156.163 341.990,155.974 343.200 C 155.785 344.410,155.519 345.950,155.382 346.623 L 155.132 347.845 152.730 347.562 C 148.516 347.065,143.738 348.247,142.789 350.021 C 142.578 350.415,142.151 350.991,141.841 351.302 C 139.029 354.114,138.299 364.990,140.757 367.448 C 142.802 369.493,148.365 370.340,152.040 369.166 C 156.258 367.819,155.752 369.071,158.000 354.400 C 158.467 351.352,158.874 348.795,159.608 344.300 C 160.370 339.637,160.411 339.815,158.551 339.679 C 157.265 339.586,156.837 339.718,156.609 340.279 M164.498 340.062 C 163.665 340.895,163.860 343.902,164.766 344.189 C 166.900 344.866,168.224 343.511,167.931 340.948 C 167.784 339.662,165.491 339.069,164.498 340.062 M292.228 340.080 C 291.930 341.032,291.549 342.973,291.146 345.600 C 290.710 348.439,290.220 351.481,289.600 355.200 C 287.440 368.157,287.400 367.754,290.971 368.943 C 298.879 371.578,305.645 368.146,307.422 360.600 C 309.525 351.674,307.151 347.543,299.920 347.543 L 296.294 347.543 296.597 345.271 C 296.763 344.022,296.922 342.280,296.950 341.400 L 297.000 339.800 294.695 339.680 C 293.069 339.595,292.342 339.713,292.228 340.080 M159.429 341.900 C 159.284 342.945,159.003 344.700,158.804 345.800 C 158.605 346.900,158.244 349.150,158.003 350.800 C 156.878 358.493,156.033 363.622,155.392 366.643 C 154.688 369.965,142.827 369.866,140.559 366.520 C 139.662 365.196,139.559 358.108,140.405 355.881 C 143.069 348.875,144.794 347.706,151.868 348.118 L 155.536 348.332 155.951 346.466 C 156.178 345.440,156.581 343.565,156.846 342.300 C 157.535 339.007,159.878 338.644,159.429 341.900 M167.594 341.300 C 167.585 343.230,166.449 344.301,165.000 343.745 C 163.459 343.153,164.649 340.000,166.414 340.000 C 167.487 340.000,167.599 340.124,167.594 341.300 M296.636 341.100 C 296.236 342.804,295.650 347.781,295.828 347.960 C 295.915 348.048,297.777 348.138,299.964 348.160 C 306.941 348.230,308.768 351.194,307.005 359.578 C 305.322 367.578,300.134 370.717,292.029 368.639 C 287.945 367.592,288.108 368.023,289.218 361.200 C 289.451 359.770,289.809 357.430,290.014 356.000 C 290.218 354.570,290.569 352.410,290.793 351.200 C 291.016 349.990,291.483 347.117,291.829 344.815 C 292.596 339.710,292.413 340.000,294.870 340.000 C 296.873 340.000,296.891 340.011,296.636 341.100 M95.000 341.600 C 94.864 341.820,94.407 342.000,93.985 342.000 C 92.987 342.000,88.800 346.187,88.800 347.185 C 88.800 347.607,88.651 348.045,88.468 348.158 C 88.286 348.270,87.905 349.406,87.622 350.681 C 87.340 351.957,86.932 353.593,86.717 354.318 C 85.849 357.245,86.122 364.046,87.183 365.908 C 89.618 370.182,102.400 371.417,102.400 367.379 L 102.400 366.084 97.700 365.942 C 89.986 365.708,89.087 364.215,90.747 354.400 C 92.076 346.537,93.947 344.800,101.087 344.800 L 105.503 344.800 106.000 343.600 C 106.882 341.471,106.246 341.200,100.375 341.200 C 97.388 341.200,95.144 341.367,95.000 341.600 M237.070 341.500 C 236.825 341.914,237.890 365.419,238.229 367.089 C 239.011 370.938,244.391 370.114,245.999 365.900 C 246.272 365.185,246.806 363.880,247.186 363.000 C 247.567 362.120,248.580 359.557,249.439 357.305 C 251.339 352.322,251.465 352.289,251.772 356.700 C 252.544 367.755,253.049 369.309,255.945 369.523 C 257.667 369.651,260.400 367.574,260.400 366.139 C 260.400 365.836,260.559 365.277,260.753 364.895 C 261.229 363.960,261.818 362.493,262.400 360.800 C 262.664 360.030,263.025 359.040,263.201 358.600 C 265.539 352.769,269.195 342.164,269.023 341.716 C 268.892 341.375,268.023 341.200,266.461 341.200 C 263.854 341.200,264.007 341.043,262.746 345.000 C 262.466 345.880,262.093 346.771,261.918 346.980 C 261.743 347.189,261.600 347.738,261.600 348.200 C 261.600 348.662,261.452 349.211,261.272 349.420 C 261.092 349.629,260.519 351.150,260.000 352.800 C 259.481 354.450,258.908 355.971,258.728 356.180 C 258.548 356.389,258.400 356.963,258.400 357.456 C 258.400 357.949,258.220 358.464,258.000 358.600 C 257.780 358.736,257.584 359.332,257.564 359.924 C 257.484 362.331,256.415 356.885,256.408 354.033 C 256.390 347.328,255.331 344.400,252.924 344.400 C 250.119 344.400,249.143 345.732,246.034 353.800 C 245.102 356.220,244.173 358.513,243.970 358.895 C 243.766 359.277,243.575 359.907,243.544 360.295 C 243.398 362.115,242.868 355.875,242.618 349.400 C 242.465 345.440,242.269 341.975,242.183 341.700 C 242.010 341.153,237.382 340.972,237.070 341.500 M105.154 341.963 C 105.503 342.184,105.619 342.669,105.469 343.269 C 105.234 344.202,105.129 344.224,100.900 344.224 C 92.867 344.224,90.376 347.540,89.718 359.107 L 89.484 363.214 91.159 364.807 C 92.959 366.519,92.544 366.429,99.200 366.552 C 101.844 366.601,102.461 367.239,101.163 368.583 C 100.308 369.470,91.915 369.066,90.147 368.053 C 87.016 366.259,85.734 360.360,87.232 354.646 C 87.469 353.741,87.850 352.280,88.079 351.400 C 89.413 346.256,91.709 343.121,94.886 342.103 C 96.498 341.586,104.390 341.479,105.154 341.963 M241.367 341.843 C 241.881 342.040,242.000 342.780,242.000 345.779 C 242.000 347.810,242.119 352.482,242.264 356.161 C 242.580 364.188,242.479 364.244,246.599 353.800 C 249.423 346.641,250.652 344.800,252.606 344.800 C 254.973 344.800,255.239 345.651,256.091 355.969 C 256.592 362.037,257.226 363.999,257.823 361.328 C 258.373 358.868,263.961 342.761,264.494 342.100 C 265.059 341.400,268.256 341.448,268.530 342.161 C 268.648 342.469,268.638 342.829,268.507 342.960 C 268.279 343.188,267.459 345.348,266.139 349.200 C 265.799 350.190,265.359 351.171,265.161 351.380 C 264.962 351.589,264.800 352.138,264.800 352.600 C 264.800 353.062,264.657 353.611,264.482 353.820 C 264.307 354.029,263.935 354.920,263.655 355.800 C 263.376 356.680,262.979 357.805,262.774 358.300 C 262.568 358.795,262.232 359.605,262.026 360.100 C 261.821 360.595,261.424 361.720,261.145 362.600 C 260.865 363.480,260.493 364.371,260.318 364.580 C 260.143 364.789,260.000 365.271,260.000 365.652 C 260.000 366.794,257.447 369.200,256.235 369.200 C 253.579 369.200,253.170 367.743,252.170 354.700 C 251.921 351.463,251.164 350.489,250.613 352.700 C 250.462 353.305,250.064 354.430,249.728 355.200 C 249.393 355.970,248.936 357.050,248.713 357.600 C 248.489 358.150,248.148 358.913,247.953 359.295 C 247.759 359.677,247.600 360.167,247.600 360.385 C 247.600 360.602,247.060 361.959,246.400 363.400 C 245.740 364.841,245.200 366.123,245.200 366.248 C 245.200 367.012,243.403 368.780,242.404 368.999 C 239.203 369.702,238.679 368.594,238.337 360.400 C 238.185 356.770,237.932 351.055,237.773 347.700 L 237.484 341.600 239.109 341.600 C 240.003 341.600,241.019 341.709,241.367 341.843 M217.438 342.867 C 217.087 343.368,216.798 344.233,216.795 344.789 C 216.782 347.048,216.398 347.600,214.833 347.600 C 213.070 347.600,212.400 348.173,212.400 349.680 C 212.400 350.712,212.521 350.800,213.933 350.800 C 215.974 350.800,215.974 350.800,215.392 354.116 C 213.421 365.356,213.393 366.902,215.134 368.458 C 216.953 370.083,221.040 370.176,221.436 368.601 C 221.808 367.116,221.370 366.400,220.089 366.400 C 217.209 366.400,217.138 365.238,219.285 353.318 L 219.732 350.836 221.966 350.718 L 224.200 350.600 224.324 349.100 L 224.448 347.600 222.368 347.600 L 220.288 347.600 220.508 345.500 C 220.628 344.345,220.789 343.130,220.864 342.800 C 221.110 341.717,218.204 341.773,217.438 342.867 M220.400 342.727 C 220.400 342.906,220.206 344.102,219.969 345.384 C 219.478 348.038,219.743 348.448,221.779 348.187 C 223.409 347.978,224.156 348.478,223.816 349.550 C 223.589 350.263,223.233 350.400,221.597 350.400 C 219.360 350.400,219.342 350.418,218.743 353.269 C 216.652 363.220,216.828 366.800,219.406 366.800 C 220.873 366.800,221.521 367.732,220.722 368.693 C 219.962 369.609,216.631 369.153,215.343 367.957 C 214.165 366.864,214.191 363.540,215.428 357.000 C 215.761 355.240,216.139 353.035,216.268 352.100 L 216.504 350.400 214.825 350.400 C 212.440 350.400,212.450 348.286,214.836 348.186 C 216.853 348.102,217.072 347.873,217.288 345.622 C 217.394 344.524,217.709 343.351,217.989 343.013 C 218.517 342.377,220.400 342.153,220.400 342.727 M113.800 347.587 C 112.480 347.749,110.750 348.158,109.955 348.497 C 108.229 349.233,108.250 349.165,106.803 358.400 C 106.579 359.830,106.197 362.170,105.955 363.600 C 105.236 367.839,105.281 369.359,106.132 369.527 C 107.674 369.831,108.700 369.245,108.975 367.904 C 109.427 365.690,110.605 358.455,111.125 354.692 C 111.543 351.670,112.170 351.095,115.288 350.879 C 118.215 350.677,118.800 350.322,118.800 348.751 C 118.800 348.100,118.583 347.598,118.300 347.595 C 118.025 347.592,117.440 347.523,117.000 347.441 C 116.560 347.360,115.120 347.425,113.800 347.587 M127.000 347.571 C 122.558 348.343,119.975 351.360,118.824 357.120 C 117.040 366.042,119.558 369.635,127.549 369.568 C 133.049 369.522,135.000 368.954,135.000 367.400 L 135.000 366.200 130.600 366.186 C 124.461 366.167,124.240 366.131,123.035 364.926 C 120.018 361.909,121.988 360.516,129.388 360.435 C 136.507 360.357,137.600 359.586,137.600 354.640 C 137.600 349.027,133.674 346.409,127.000 347.571 M178.000 347.586 C 175.267 347.896,172.571 348.560,171.658 349.150 C 171.018 349.563,170.721 350.994,169.200 361.000 C 168.999 362.320,168.656 364.562,168.436 365.982 C 167.998 368.817,168.284 369.604,169.749 369.594 C 171.206 369.583,171.723 368.944,172.063 366.735 C 172.244 365.561,172.590 363.430,172.831 362.000 C 173.242 359.560,173.721 356.566,174.253 353.107 C 174.523 351.353,175.812 350.806,179.681 350.802 C 184.661 350.797,184.852 351.321,183.380 360.954 C 182.157 368.960,182.198 369.600,183.938 369.600 C 185.491 369.600,185.811 369.099,186.363 365.800 C 186.620 364.260,186.999 362.010,187.204 360.800 C 187.762 357.505,188.027 355.616,188.240 353.400 C 188.685 348.787,185.143 346.776,178.000 347.586 M199.785 347.596 C 193.996 348.446,191.074 353.108,191.026 361.570 C 190.989 368.235,192.964 369.802,201.000 369.484 C 206.794 369.254,207.200 369.120,207.200 367.424 C 207.200 365.703,207.284 365.736,203.721 366.055 C 197.062 366.651,194.800 365.771,194.800 362.582 L 194.800 360.916 197.500 360.661 C 198.985 360.520,201.370 360.396,202.800 360.385 C 207.129 360.351,209.316 359.584,209.728 357.958 C 210.625 354.408,210.526 353.137,209.119 350.151 C 208.178 348.154,203.922 346.989,199.785 347.596 M276.400 347.596 C 270.935 348.445,268.331 352.042,267.419 360.003 C 266.595 367.193,269.556 369.860,277.977 369.513 C 283.743 369.276,284.400 368.978,284.400 366.601 L 284.400 364.831 279.275 364.916 C 273.568 365.010,272.800 364.721,272.800 362.488 L 272.800 361.318 276.300 361.031 C 287.402 360.120,286.800 360.455,286.800 355.183 C 286.800 348.970,283.421 346.505,276.400 347.596 M134.000 348.600 C 136.295 349.328,137.515 352.758,136.916 356.798 L 136.590 358.996 133.995 359.479 C 132.568 359.745,129.291 359.971,126.714 359.981 C 121.415 360.002,120.964 360.252,121.579 362.826 C 122.415 366.322,123.054 366.622,129.472 366.528 C 134.382 366.457,134.400 366.460,134.400 367.386 C 134.400 368.563,134.090 368.670,129.684 369.015 C 119.372 369.822,116.990 366.237,120.110 354.600 C 121.587 349.091,127.500 346.537,134.000 348.600 M163.202 348.595 C 162.994 349.142,162.623 350.987,162.377 352.695 C 161.928 355.822,161.518 358.462,160.823 362.700 C 159.786 369.023,159.789 369.132,161.013 369.439 C 163.163 369.979,163.810 368.755,164.734 362.400 C 164.974 360.750,165.555 357.010,166.024 354.090 C 167.009 347.963,166.952 347.600,165.003 347.600 C 163.855 347.600,163.507 347.792,163.202 348.595 M183.851 348.198 C 187.394 348.747,188.210 350.869,187.238 357.000 C 186.958 358.760,186.431 362.090,186.065 364.400 L 185.400 368.600 184.043 368.730 L 182.687 368.859 182.957 367.130 C 183.105 366.178,183.393 364.320,183.596 363.000 C 183.944 360.738,184.501 357.478,185.055 354.467 C 185.661 351.176,182.738 349.660,177.330 350.463 C 173.812 350.984,174.010 350.588,172.593 359.951 C 171.329 368.305,171.171 368.800,169.759 368.800 C 168.537 368.800,168.520 369.126,170.367 357.200 C 170.588 355.770,170.927 353.558,171.120 352.285 C 171.313 351.012,171.634 349.828,171.835 349.654 C 172.770 348.847,179.934 347.506,181.600 347.826 C 181.930 347.890,182.943 348.057,183.851 348.198 M118.394 348.500 C 118.383 349.428,117.635 350.200,116.715 350.233 C 111.004 350.438,111.214 350.170,109.997 358.800 C 109.795 360.230,109.357 362.840,109.023 364.600 C 108.689 366.360,108.412 368.025,108.408 368.300 C 108.403 368.603,107.849 368.800,107.000 368.800 C 105.489 368.800,105.355 368.512,105.959 366.560 C 106.294 365.477,106.612 363.634,107.625 356.902 C 108.597 350.440,108.861 349.559,109.962 349.112 C 112.653 348.018,118.405 347.601,118.394 348.500 M166.096 349.400 C 166.039 350.060,165.805 351.680,165.577 353.000 C 165.349 354.320,164.999 356.480,164.799 357.800 C 164.462 360.030,164.007 362.970,163.361 367.100 C 163.107 368.720,163.030 368.800,161.716 368.800 C 160.423 368.800,160.351 368.731,160.563 367.700 C 160.688 367.095,161.160 364.170,161.613 361.200 C 163.596 348.200,163.689 347.878,165.400 348.098 C 166.027 348.179,166.178 348.460,166.096 349.400 M207.850 349.663 C 209.433 351.246,210.000 354.246,209.313 357.400 C 208.883 359.371,206.644 359.951,199.349 359.981 C 194.140 360.003,193.762 360.219,194.170 362.942 C 194.653 366.160,195.579 366.608,201.635 366.554 C 206.743 366.509,206.800 366.519,206.800 367.412 C 206.800 368.561,206.476 368.671,202.084 369.015 C 196.791 369.429,195.074 369.074,193.171 367.171 L 191.600 365.600 191.600 361.746 C 191.600 351.872,194.961 347.825,202.917 348.118 C 206.340 348.245,206.473 348.286,207.850 349.663 M283.168 348.634 C 285.663 349.632,286.200 350.775,286.200 355.080 C 286.200 359.663,286.214 359.649,281.118 360.043 C 272.369 360.718,272.000 360.790,272.000 361.828 C 272.000 364.978,273.710 365.798,279.624 365.486 L 284.000 365.256 284.000 366.579 C 284.000 368.642,283.420 368.853,277.523 368.930 C 271.575 369.008,270.147 368.563,268.759 366.195 C 267.709 364.404,267.752 358.890,268.841 355.566 C 270.413 350.769,271.493 349.530,275.200 348.267 C 276.587 347.795,281.654 348.028,283.168 348.634 M126.600 350.482 C 124.217 351.315,122.863 353.199,122.234 356.557 L 121.942 358.114 127.564 357.912 C 134.148 357.675,134.404 357.553,134.391 354.651 C 134.375 350.860,130.877 348.988,126.600 350.482 M148.048 350.461 C 144.356 351.523,142.751 354.508,142.659 360.486 C 142.576 365.927,143.224 366.615,148.390 366.568 C 152.760 366.528,152.913 366.407,153.526 362.520 C 153.797 360.804,154.190 358.320,154.401 357.000 C 154.611 355.680,154.893 353.773,155.028 352.762 L 155.272 350.925 152.969 350.462 C 150.321 349.931,149.893 349.930,148.048 350.461 M199.074 350.580 C 196.926 351.345,196.138 352.186,195.191 354.716 C 193.946 358.044,194.023 358.137,198.000 358.052 C 206.000 357.883,206.806 357.619,207.092 355.080 C 207.536 351.141,203.635 348.953,199.074 350.580 M133.040 351.804 C 133.878 352.642,134.023 353.119,133.922 354.704 L 133.800 356.600 131.600 357.061 C 130.390 357.315,127.856 357.540,125.969 357.561 L 122.539 357.600 122.728 356.310 C 123.421 351.589,129.966 348.729,133.040 351.804 M153.959 351.166 C 154.544 351.536,154.458 353.251,153.589 358.600 C 153.375 359.920,153.087 361.847,152.950 362.883 C 152.590 365.607,151.790 366.164,148.208 366.184 C 143.929 366.207,143.194 365.448,143.218 361.030 C 143.259 353.488,145.201 350.799,150.600 350.808 C 152.140 350.810,153.652 350.972,153.959 351.166 M205.080 351.401 C 207.775 353.289,207.045 356.480,203.767 357.138 C 199.935 357.908,194.646 357.764,195.009 356.900 C 195.170 356.515,195.398 355.750,195.513 355.200 C 196.276 351.573,202.051 349.280,205.080 351.401 M275.800 351.556 C 274.163 352.271,272.113 355.988,272.624 357.317 C 272.852 357.912,281.110 357.450,281.753 356.807 C 282.391 356.169,282.202 352.830,281.487 352.116 C 280.750 351.379,277.042 351.014,275.800 351.556 M296.134 351.457 C 295.085 351.687,294.820 352.287,294.391 355.400 C 294.209 356.720,293.785 359.321,293.448 361.181 C 292.683 365.409,292.811 365.600,296.420 365.600 C 299.511 365.600,301.696 364.152,302.191 361.779 C 302.326 361.130,302.608 359.949,302.818 359.154 C 304.377 353.248,301.754 350.228,296.134 351.457 M280.711 352.223 C 281.426 352.723,281.600 353.233,281.600 354.823 L 281.600 356.800 277.410 356.800 L 273.220 356.800 273.473 355.500 C 273.613 354.785,273.878 354.140,274.063 354.067 C 274.249 353.993,274.400 353.698,274.400 353.409 C 274.400 352.041,279.170 351.144,280.711 352.223 M300.348 351.985 C 302.913 352.721,303.315 354.423,302.144 359.607 C 301.220 363.697,300.089 364.892,296.959 365.088 C 293.295 365.317,293.465 365.985,294.743 356.400 C 295.273 352.425,295.444 352.074,296.934 351.887 C 297.630 351.799,298.381 351.699,298.603 351.664 C 298.824 351.629,299.609 351.773,300.348 351.985  M -25 0 L -5 0 L -5 20 L -25 20 Z M 405 0 L 425 0 L 425 20 L 405 20 Z" stroke="none" fill="#5e738f" fill-rule="evenodd" transform="translate(30,460)"></path><path id="path4" d="M207.691 74.948 C 207.992 75.250,208.770 75.792,209.420 76.153 C 210.069 76.515,210.943 77.033,211.363 77.305 C 211.783 77.577,213.313 78.563,214.763 79.495 C 216.213 80.428,217.580 81.338,217.800 81.518 C 218.020 81.697,218.785 82.103,219.500 82.420 C 220.215 82.736,220.800 83.131,220.800 83.298 C 220.800 83.464,221.068 83.600,221.397 83.600 C 221.725 83.600,222.218 83.960,222.493 84.400 C 222.768 84.840,223.174 85.201,223.396 85.202 C 223.618 85.203,224.749 85.923,225.908 86.802 C 227.068 87.681,228.193 88.400,228.408 88.400 C 228.624 88.400,228.800 88.580,228.800 88.800 C 228.800 89.020,229.009 89.200,229.265 89.200 C 229.716 89.200,238.597 95.665,239.400 96.578 C 239.620 96.828,240.520 97.559,241.400 98.203 C 243.626 99.831,247.343 102.963,251.603 106.800 C 252.458 107.570,254.104 109.010,255.259 110.000 C 257.860 112.227,268.952 123.312,272.200 126.931 C 273.520 128.401,275.520 130.564,276.645 131.738 C 277.770 132.911,278.760 134.060,278.845 134.291 C 278.930 134.521,279.900 135.692,281.000 136.892 C 283.901 140.058,284.893 141.229,286.002 142.795 C 286.545 143.562,287.262 144.477,287.595 144.828 C 287.928 145.179,288.692 146.261,289.292 147.233 C 290.558 149.280,290.932 149.862,292.706 152.537 C 293.424 153.620,294.129 154.978,294.272 155.553 C 294.415 156.129,294.862 157.190,295.266 157.912 C 295.670 158.634,296.000 159.489,296.000 159.812 C 296.000 160.135,296.136 160.400,296.302 160.400 C 296.652 160.400,297.266 161.834,298.014 164.400 C 298.303 165.390,298.688 166.371,298.870 166.580 C 299.051 166.789,299.200 167.526,299.200 168.218 C 299.200 168.910,299.556 170.539,299.990 171.838 C 300.793 174.239,301.253 193.014,300.526 193.741 C 300.108 194.159,299.214 196.897,299.200 197.800 C 299.186 198.703,298.292 201.441,297.874 201.859 C 297.723 202.010,297.596 202.598,297.591 203.167 C 297.586 203.735,297.230 204.650,296.800 205.200 C 296.370 205.750,296.014 206.479,296.009 206.820 C 296.004 207.161,295.849 207.611,295.664 207.820 C 295.479 208.029,295.085 208.830,294.787 209.600 C 294.137 211.284,293.212 212.800,289.234 218.701 C 285.122 224.802,284.526 225.635,283.407 226.842 C 282.877 227.415,281.788 228.740,280.989 229.787 C 280.190 230.834,278.966 232.274,278.268 232.988 C 277.571 233.702,275.560 235.872,273.800 237.810 C 270.884 241.021,267.162 244.781,261.800 249.932 C 260.700 250.989,258.180 253.260,256.200 254.980 C 254.220 256.699,252.135 258.577,251.567 259.153 C 250.999 259.729,250.040 260.560,249.437 261.000 C 248.833 261.440,247.927 262.160,247.424 262.600 C 246.920 263.040,245.809 263.967,244.954 264.660 C 244.099 265.354,243.009 266.254,242.530 266.660 C 241.447 267.582,240.503 268.328,235.000 272.610 C 229.385 276.979,229.454 276.926,228.699 277.400 C 228.348 277.620,226.361 279.105,224.284 280.700 C 222.207 282.295,220.318 283.600,220.087 283.600 C 219.856 283.600,219.607 283.744,219.533 283.921 C 219.296 284.491,199.478 297.600,198.853 297.600 C 198.658 297.600,198.277 297.866,198.007 298.192 C 197.737 298.517,197.040 299.035,196.458 299.344 C 195.876 299.652,193.960 300.678,192.200 301.624 C 184.148 305.953,179.030 308.392,177.966 308.409 C 177.655 308.414,176.950 308.770,176.400 309.200 C 175.850 309.630,175.064 309.986,174.653 309.991 C 174.241 309.996,172.801 310.343,171.453 310.763 C 163.549 313.220,152.109 314.013,147.000 312.458 C 146.120 312.190,144.500 311.820,143.400 311.636 C 137.947 310.725,128.920 306.375,122.155 301.400 C 119.500 299.447,111.600 291.785,111.600 291.162 C 111.600 290.990,110.925 290.051,110.100 289.077 C 108.004 286.601,107.526 285.995,106.405 284.400 C 105.864 283.630,105.102 282.651,104.711 282.225 C 104.320 281.798,104.000 281.272,104.000 281.056 C 104.000 280.840,103.715 280.348,103.367 279.963 C 102.615 279.132,101.274 276.886,100.942 275.900 C 100.660 275.062,100.000 274.967,100.000 275.764 C 100.000 276.759,103.221 282.111,105.558 285.000 C 106.804 286.540,108.262 288.430,108.798 289.200 C 110.647 291.854,115.628 297.404,117.512 298.907 C 126.393 305.996,136.241 311.600,139.816 311.600 C 140.399 311.600,141.354 311.861,141.938 312.180 C 146.661 314.760,161.988 314.882,169.600 312.401 C 170.810 312.007,172.430 311.554,173.200 311.396 C 173.970 311.237,174.780 310.965,175.000 310.790 C 175.220 310.616,176.570 310.082,178.000 309.605 C 181.621 308.395,188.684 304.956,193.200 302.202 C 195.290 300.927,197.540 299.592,198.200 299.235 C 204.260 295.953,232.337 276.767,234.200 274.636 C 234.420 274.384,235.763 273.283,237.184 272.189 C 242.083 268.417,245.792 265.471,246.908 264.464 C 248.653 262.888,253.758 258.574,255.882 256.879 C 261.903 252.075,281.905 231.117,285.437 225.911 C 286.075 224.970,287.429 223.120,288.445 221.800 C 291.950 217.244,297.652 206.925,298.737 203.172 C 299.019 202.197,299.440 200.860,299.674 200.200 C 299.908 199.540,300.339 197.740,300.634 196.200 C 300.928 194.660,301.356 192.771,301.585 192.003 C 301.813 191.234,302.000 187.274,302.000 183.202 C 302.000 175.359,302.020 175.484,299.045 164.600 C 298.430 162.350,295.737 155.648,295.177 154.973 C 294.976 154.730,294.087 153.214,293.202 151.603 C 291.483 148.476,288.922 144.859,286.000 141.434 C 285.010 140.273,283.480 138.364,282.600 137.192 C 280.322 134.156,265.611 118.055,264.297 117.159 C 264.103 117.026,262.291 115.298,260.272 113.318 C 256.805 109.919,251.609 105.238,246.820 101.200 C 245.645 100.210,243.813 98.643,242.749 97.717 C 241.684 96.792,240.442 95.837,239.989 95.594 C 239.536 95.352,236.968 93.490,234.283 91.457 C 231.597 89.424,228.823 87.410,228.118 86.980 C 227.414 86.551,225.254 85.100,223.318 83.756 C 221.383 82.411,218.450 80.552,216.800 79.624 C 215.150 78.696,213.440 77.612,213.000 77.215 C 212.560 76.817,211.750 76.356,211.200 76.191 C 210.650 76.025,209.771 75.555,209.246 75.145 C 208.083 74.237,206.820 74.077,207.691 74.948 M210.000 175.576 C 210.000 176.003,209.840 176.452,209.644 176.573 C 209.449 176.694,209.185 177.199,209.059 177.696 C 208.702 179.101,202.819 190.090,201.876 191.114 C 201.413 191.617,200.576 192.808,200.017 193.760 C 191.817 207.724,179.804 220.913,162.918 234.491 C 157.679 238.704,156.696 239.435,148.879 244.924 C 142.277 249.560,133.898 254.962,128.000 258.384 C 126.350 259.341,124.370 260.517,123.600 260.997 C 120.011 263.231,114.783 266.054,107.936 269.453 C 101.129 272.833,99.192 274.000,100.388 274.000 C 100.871 274.000,105.694 271.816,109.400 269.920 C 110.720 269.245,112.520 268.333,113.400 267.895 C 114.280 267.456,115.060 266.940,115.133 266.749 C 115.207 266.557,115.567 266.396,115.933 266.391 C 116.300 266.386,117.050 266.030,117.600 265.600 C 118.150 265.170,118.719 264.814,118.865 264.809 C 119.166 264.799,124.284 261.942,126.400 260.603 C 127.764 259.740,134.675 255.602,136.759 254.400 C 137.332 254.070,138.430 253.341,139.200 252.780 C 139.970 252.219,141.092 251.515,141.693 251.216 C 142.295 250.917,143.142 250.341,143.577 249.936 C 144.011 249.531,144.458 249.200,144.569 249.200 C 144.681 249.200,145.476 248.705,146.337 248.100 C 149.516 245.866,154.612 242.233,155.000 241.925 C 155.220 241.750,156.930 240.435,158.800 239.002 C 170.592 229.966,176.124 224.995,185.400 215.096 C 188.942 211.316,190.799 209.116,192.600 206.568 C 193.260 205.634,194.655 203.675,195.700 202.216 C 196.745 200.756,197.600 199.418,197.600 199.243 C 197.600 199.067,197.960 198.598,198.400 198.200 C 198.840 197.802,199.200 197.328,199.200 197.146 C 199.200 196.965,199.919 195.868,200.798 194.708 C 201.677 193.549,202.397 192.397,202.398 192.149 C 202.399 191.901,202.689 191.458,203.042 191.165 C 203.395 190.873,203.841 190.265,204.034 189.816 C 204.227 189.367,204.924 188.100,205.584 187.000 C 206.719 185.107,207.379 183.821,210.087 178.232 C 211.186 175.964,211.296 174.800,210.413 174.800 C 210.186 174.800,210.000 175.149,210.000 175.576  M -25 0 L -5 0 L -5 20 L -25 20 Z M 405 0 L 425 0 L 425 20 L 405 20 Z" stroke="none" fill="#464240" fill-rule="evenodd" transform="translate(490,460)"></path></g></svg>